/* XPM */
static char *c5513a8728604049a9fd1ea6aedbcce1nogORk3Yc8NpBYSl[] = {
/* columns rows colors chars-per-pixel */
"64 64 256 2 ",
"   c black",
".  c #1F170B",
"X  c #170F07",
"o  c #4B4B4B",
"O  c white",
"+  c #1B1B1B",
"@  c #131313",
"#  c #0B0B0B",
"$  c #070707",
"%  c #2F371F",
"&  c #232B0F",
"*  c #171F07",
"=  c #0F1700",
"-  c #4F3B2B",
";  c #473323",
":  c #3F2B1B",
">  c #FFB7B7",
",  c #F7ABAB",
"<  c #F3A3A3",
"1  c #EB9797",
"2  c #E78F8F",
"3  c #DF8787",
"4  c #DB7B7B",
"5  c #D37373",
"6  c #CB6B6B",
"7  c #C76363",
"8  c #BF5B5B",
"9  c #BB5757",
"0  c #B34F4F",
"q  c #AF4747",
"w  c #A73F3F",
"e  c #A33B3B",
"r  c #9B3333",
"t  c #972F2F",
"y  c #8F2B2B",
"u  c #8B2323",
"i  c #831F1F",
"p  c #7F1B1B",
"a  c #771717",
"s  c #731313",
"d  c #6B0F0F",
"f  c #670B0B",
"g  c #5F0707",
"h  c #5B0707",
"j  c #530707",
"k  c #4F0000",
"l  c #470000",
"z  c #430000",
"x  c #FFEBDF",
"c  c #FFE3D3",
"v  c #FFDBC7",
"b  c #FFD3BB",
"n  c #FFCFB3",
"m  c #FFC7A7",
"M  c #FFBF9B",
"N  c #FFBB93",
"B  c #FFB383",
"V  c #F7AB7B",
"C  c #EFA373",
"Z  c #E79B6B",
"A  c #DF9363",
"S  c #D78B5B",
"D  c #CF8353",
"F  c #CB7F4F",
"G  c #BF7B4B",
"H  c #B37347",
"J  c #AB6F43",
"K  c #A36B3F",
"L  c #9B633B",
"P  c #8F5F37",
"I  c #875733",
"U  c #7F532F",
"Y  c #774F2B",
"T  c #6B4727",
"R  c #5F4323",
"E  c #533F1F",
"W  c #4B371B",
"Q  c #3F2F17",
"!  c #332B13",
"~  c #2B230F",
"^  c #EFEFEF",
"/  c #E7E7E7",
"(  c #DFDFDF",
")  c gray86",
"_  c LightGray",
"`  c #CBCBCB",
"'  c gray78",
"]  c gray75",
"[  c #B7B7B7",
"{  c gray70",
"}  c gray67",
"|  c #A7A7A7",
" . c #9F9F9F",
".. c #979797",
"X. c #939393",
"o. c #8B8B8B",
"O. c #838383",
"+. c gray50",
"@. c #777777",
"#. c #6F6F6F",
"$. c gray42",
"%. c gray39",
"&. c #5B5B5B",
"*. c gray34",
"=. c gray31",
"-. c gray28",
";. c #434343",
":. c gray23",
">. c #373737",
",. c #2F2F2F",
"<. c #272727",
"1. c #232323",
"2. c #77FF6F",
"3. c #6FEF67",
"4. c #67DF5F",
"5. c #5FCF57",
"6. c #5BBF4F",
"7. c #53AF47",
"8. c #4B9F3F",
"9. c #439337",
"0. c #3F832F",
"q. c #37732B",
"w. c #2F6323",
"e. c #27531B",
"r. c #1F4317",
"t. c #17330F",
"y. c #13230B",
"u. c #0B1707",
"i. c #BFA78F",
"p. c #B79F87",
"a. c #AF977F",
"s. c #A78F77",
"d. c #9F876F",
"f. c #9B7F6B",
"g. c #937B63",
"h. c #8B735B",
"j. c #836B57",
"k. c #7B634F",
"l. c #775F4B",
"z. c #6F5743",
"x. c #67533F",
"c. c #5F4B37",
"v. c #574333",
"b. c #533F2F",
"n. c #9F8363",
"m. c #8F7753",
"M. c #836B4B",
"N. c #775F3F",
"B. c #675333",
"V. c #5B472B",
"C. c #4F3B23",
"Z. c #43331B",
"A. c #7B7F63",
"S. c #6F7357",
"D. c #676B4F",
"F. c #5B6347",
"G. c #53573B",
"H. c #474F33",
"J. c #3F472B",
"K. c #373F27",
"L. c #FFFF73",
"P. c #EBDB57",
"I. c #D7BB43",
"U. c #C39B2F",
"Y. c #AF7B1F",
"T. c #9B5B13",
"R. c #874307",
"E. c #732B00",
"W. c white",
"Q. c #FFDBDB",
"!. c #FFBBBB",
"~. c #FF9B9B",
"^. c #FF7B7B",
"/. c #FF5F5F",
"(. c #FF3F3F",
"). c #FF1F1F",
"_. c red",
"`. c #EF0000",
"'. c #E30000",
"]. c #D70000",
"[. c #CB0000",
"{. c #BF0000",
"}. c #B30000",
"|. c #A70000",
" X c #9B0000",
".X c #8B0000",
"XX c #7F0000",
"oX c #730000",
"OX c #670000",
"+X c #5B0000",
"@X c #4F0000",
"#X c #430000",
"$X c #E7E7FF",
"%X c #C7C7FF",
"&X c #ABABFF",
"*X c #8F8FFF",
"=X c #7373FF",
"-X c #5353FF",
";X c #3737FF",
":X c #1B1BFF",
">X c blue",
",X c #0000E3",
"<X c #0000CB",
"1X c #0000B3",
"2X c #00009B",
"3X c #000083",
"4X c #00006B",
"5X c #000053",
"6X c white",
"7X c #FFEBDB",
"8X c #FFD7BB",
"9X c #FFC79B",
"0X c #FFB37B",
"qX c #FFA35B",
"wX c #FF8F3B",
"eX c #FF7F1B",
"rX c #F37317",
"tX c #EB6F0F",
"yX c #DF670F",
"uX c #D75F0B",
"iX c #CB5707",
"pX c #C34F00",
"aX c #B74700",
"sX c #AF4300",
"dX c white",
"fX c #FFFFD7",
"gX c #FFFFB3",
"hX c #FFFF8F",
"jX c #FFFF6B",
"kX c #FFFF47",
"lX c #FFFF23",
"zX c yellow",
"xX c #A73F00",
"cX c #9F3700",
"vX c #932F00",
"bX c #872300",
"nX c #4F3B27",
"mX c #432F1B",
"MX c #372313",
"NX c #2F1B0B",
"BX c #000053",
"VX c #000047",
"CX c #00003B",
"ZX c #00002F",
"AX c #000023",
"SX c #000017",
"DX c #00000B",
"FX c cyan",
"GX c #FF9F43",
"HX c #FFE74B",
"JX c #FF7BFF",
"KX c magenta",
"LX c #CF00CF",
"PX c #9F009B",
"IX c #6F006B",
"UX c #A76B6B",
/* pixels */
"G G G G G G G G G G K T T U U P P L L K K G D S P U U U U U P K K H F F F F F F F H P S F F F F F F F F H U D G G G G G G G G G ",
"G G G G G G G G G K T T U U U I P P L L K D S S U U U U U U K K K H I H F F F F H P S F F F F F F F F H U D G G G G G G G G G G ",
"G G G G G G G K T T T T U U U I P P L L K G S L P U U U U P K K H I U U H F F H H S F F F G G G F F H U K D G G H G G G G G G G ",
"G G G G G G K T T T T U U I I I P P L L K H S L L P U U P K G H I I U U U I H H P S F F G G F F F H U U D G G G G G G G G H H G ",
"G G G G K P T T U T U U I I P P L L L L K G P L L L P U K H H I I U I U I U U P S F G F G F F F H T T I D G G G G G G H G G G G ",
"G G G K P T U U U U I I P P L L K K K H F P L L L K P U H L P P U I U U U U Y S F F G G F G F H T T T D G G H H H G G G G H G G ",
"G K K Y T I U I U L L L K K K H H G G P P L L L K U D H L P I I I I I U I Y D F G G F H F F H T T T T P G G G G H G H G H G G G ",
"K P Y T U U I I L K K K K H F F F P P L L L K K H D H L P P I I P U U I Y G H F H H G G F H U T I L U T P H H H H H H G G H G G ",
"P T T Y L K K K K H H F F G H P P P L L K K H D G G L P P I P I P I P I Y H G F H G H F H U I L L L U U T P L G H G H G H G G K ",
"T Y I I K F F F F F G F G P P P L L L K H H D G H L P P P P I I I P I Y L L G H H H F H U I L L H U U U U T P H G H H H G H K P ",
"I L K K H F F F F F F P P L L L L K H H H D G L L P P P I P P P I P Y I L P P H G H H U P L H H L U U I U T P P K H G H K K I T ",
"K K G H H L G F G P P U U L L K H H H H D H H L P P P I P P P P P Y Y K L P U U H H U P K H H G P I U U U T U U U K H K P P Y L ",
"G G L I I I I K H P K P F U K K H G H D H L L P P P P P P P I P U Y I H L P P U U P K K H H G G L U I I U T T T T U P P I L K K ",
"L L U U U U U U K K K G F L U U H H D D K L P P P P P I P P P I Y I L D K L P U K K L L H G G D H L I I U T K P T U P L K K K D ",
"G H L L U U U U K K H H G F L U U D D D D K P P P P P I P P P U Y L G G G L P K K L P H G G D G G H L I U T P K U P K K K K D G ",
"G G G G H L U U K K H G H F L U U D F D D K K P P P P P P I U T K K G G G K P K L P L G D D F F G G L L U T Y P K K K K K K D G ",
"G G G G G G G I K K H I G G H L D G F F F D K K P P P P P U T R K G G G G K L L P L G D F F F F F G H K K P Y K K K K K K D G G ",
"G G G G G G K I K K L P I H L U F D D F D D D K P P P P U Y R P K G G G G G L P H G D F F G G G F F H U I P I I K K K K K D G H ",
"G G G G G K I K K K K L P I K F G G G F G F D D K P P U Y R U K K G G G G H L H G D F G G G G G F H U U I P P I I K K K D G H G ",
"H H G G K I K K K K K K K U D P G H F G G F D D H K U Y R U P K H G G G P K H G D F G G H G G F H U U U I P P P I K K D G G H H ",
"H H G K I K K K P K K K K D K P P H G G G F D F D K Y T T U P K H G G Y P H D D F H H K H F H H U U U I P P P P I K K D G G H G ",
"H G K I K K G L P P K K H D P P P P H F F F D D G Y T U U P P K H G Y P H D F G H K K H F H F H P P G G G K P P I K D G H H H H ",
"K K I K G G L P P Y K H D K P P P P P F G D D K U U U U U I P K I Y P T P H H L K H K L H G H U G P G G G K P I K K D H L G K K ",
"K I K G L P P P U Y P H D P P P P P I U G K P L U P P I U U K Y L S P T T P K H H L H K K H U L P K K G G G K I K D G H H L K G ",
"I K S P P P P P Y I H D K P P P P P I U H G H L L L L P P P Y I H S P T T T P K H H K G H U K K I P K K G G K K K G H K L L H L ",
"K S G G P P P Y Y K D K P P P P P I U L G D H H L L L L P Y Y H H D G P T T T K K H H K U L K P I U K K K D K K H K L K L L L I ",
"S G G G G P U Y K F D K P P P P P I U G D H H H H L L P Y Y T H D G G G P T T L K K G U L G K I I U H H P P K G K L L L K L I G ",
"G G G G K Y Y I F D K P P P P P P U L D H H H H H L L P Y T T G G G G G G P T I L I I L D K L P U P H H P P G K P U L L L I G S ",
"G H G G L Y Y H F S K P P P P P I U D H H H H H H H P Y T P K I P G G G G U P I I I K G H K I P U P F H K G K P U Y Y L I G S G ",
"G H G K I Y H F S K P P P P P I U L H G H H H H H L Y T P K H L I P G G K U I I K H G D K L P U P P P P G K P I U Y Y U K S G H ",
"H H G L Y K F S K L P P P P P I U G H H H H H H L Y U P K G L P L I P K P P L K G G S D K P P U K P K G K P P U I I Y I K G G G ",
"H H K Y I F S G H K L P P P I U L G H G H G H L Y U P K G L L L P P I P U L K G G S S K L L U P K K G G K K P I Y R R K G K H H ",
"H H L I H D G G G H K L P P I U H F G H H H L Y U P K G H P P P L P I T P L H G S S A L L P U K K G G G G K Y R R R T U K K H G ",
"G K I H D G G G G G H K L I U L H F G G G L Y U P K K G L P L P P I T U P L H S S A H H L U P K G G G G G Y R R R Y U T I K G H ",
"G I I G D G G G G G G H K L U P K H F G L Y I P K K G H L L P L P T Y U P K F S S F F H P U K G G G G G Y R R R Y I L U T I H H ",
"G I H D G G G G G G G G H P P L K H L L Y P P K H G G H K L P P I Y Y P H D S F F F F F I P G G G G G K R R R Y I L I I U T K G ",
"K K D G G G G G G G G K P P P L K L Y Y K K G G G G H H H K L I T U U P K F F F F F F K I K G G G G G Y R R Y I I L I I I U K G ",
"I D G G G G G G G G K P P P P L L Y I I G G G G G G H H H H K T U U L H K F F F F F F I I G G G G G I R R Y I I L I I I U L K K ",
"T G G G G G G G G K P P P P P L Y K I U H G G G G G H H H H K T Y P L H H F F F F F L I G G G G G K R Y Y I I I L I I I U P K I ",
"T T G G G G G G K P P P P P I U H L I Y I G G G G G G H H H P Y Y U P H H F F F F F P G G G G G G I R Y I L G L I I I I Y P K T ",
"T T T G G G G L U U U I P U U H H L I Y Y I G G G G G H H L U U U Y Y Y L F F F F L T P L G G G K R I I H G D L L I I U Y I I T ",
"U Y I T G H L L U U U I I U H H H I I Y Y U H G G G G H L U U U U U Y Y Y L L H L I T T P L G G I I L H G D S H L I I Y R Y I T ",
"Y U U I H L L P P U U I L H H G L I I U Y Y U G G H K G P P I U I P I I Y P L H F K I T T P L K L K H G D S D G L L I R R R Y T ",
"U I I H L L P L P L I U L H G H I I U Y I Y U I H K G P P I P I U U U I L H H F S G K I T T U L K H H G S D G G H L U T R Y T T ",
"U I H L L P L P P P L L H H G L I I Y U U U U I K G L P I U I I U I I P L H F S D F G K I T I K H H G S D G G G G L P T R T U T ",
"I H L L P L L P P P P H H G H I I U Y U I I I K F G P P P P I P I P P I H H S D F G H G K I P H H G D D G G G G G L Y R T R T I ",
"H L L L L P L P L L H H G G L I U I I I I Y Y S F L P I P I U U I U I I H H D F G G G G G K L H H G S G G G G G K P T T R Y L K ",
"L L L P L L P P L L H G F H I I I I U I Y Y G S L P P P P P P P I U P L H D F G H G G G G G L H G F G G G G G G K L R R Y Y H H ",
"L L L P L L L L L H G G F L I I I I U Y R L S F K L P P P I P I I P P H H F G G G G H G G L L G F G G G G G G K P T Y R I H H L ",
"L L L L L P L L H G G D L I I I I Y Y R L S F H K K L P P P P P I I I K G G G G H H G G G L K F G H G G G G G K L T Y I H F H L ",
"L L L L L L L H H G D L I I I I Y Y R R G D G G H K K L P P P P P P U L G G G G G G G G L K F H G G G H G G K P Y Y I H F L L L ",
"L L L L L L L H G D F G K I I Y T R R I S F G G G H K K L P P P P P U L K G G G G G L L K G F G H H G G G G K L Y I L G F G L L ",
"L L L L L L H G D F G H H K I I R R R G D G G G G G H K K L P P P I U I K G G G G L I K G F H H H H G H G K P U Y I H F F H G L ",
"G L L L L H G D G H H H H L I T R R I S F G G G G G G H K K L P P U T I P K G G G I L G F K G K G G H G H K L U U L F F G G G H ",
"G H L L H H D G H H K H H I T R R R G D G G G G G G G G H K K L P U Y I I K G G I L K H H K H K H H H G K P U U L G F G G H G H ",
"G G K K H D H H H H H H K I T R R I D F G G G G G G G G G H K K I Y T U I P K I L K G K H K K H K K G H K L U U L F G H G G G H ",
"G K K H D H H H K H H H K I R R I H F H G G G G G G G G G G H K T T T U I I P I K G K G H K H K K H H L P U U L F G H G G G H H ",
"K K K D H H K H H H K K K I R R I F G G G G G G G G G G G G G I E Q R U U Y U L H H K K K K K H K K H L U U L H F H H H G H G G ",
"K K D H H H H H K L H K L T R I H G H G G G G G G G G G G H I T E Q Q Q T I L H K L L P K P K K K H L P U L H F H H G H G G H G ",
"K K K H H K K L K K K H L T R K G H G H H H G G G G G G H I E E E E E E Q L P L L P P L P K L L K K L U U L F H H H H G H G G G ",
"K I K L K K H L K K L K I R I H H H H H H H H G G H G H I E E E E E E E E R L P P L P L K L K P H L P U L F H H G H H H H G H H ",
"Y Y I I L L K L L K L K I R K K H H H H H G H G H G L I R T E E E E E E R R T P P P P P L L L P K L U L F H H H H H H H H H H Y ",
"Y Y Y Y I L K L L K K L R K K K K K H H G H H G H L R R Y R E E E E E R R R R T P P P K P P L H L P U K H H H H G H H G G H H Y ",
"Y Y Y Y Y Y I L L L K I K K K K K K K K H G G L L R I I Y E E E E E R R R T T T I P P P L L L K P U K H H H H H H H H H H H Y Y "
};
