/* XPM */
static char *_94e7e64219047bdeae44508d74a0bcfhUjuS8cc6lTDicZZ[] = {
/* columns rows colors chars-per-pixel */
"64 64 256 2 ",
"   c black",
".  c #1F170B",
"X  c #170F07",
"o  c #4B4B4B",
"O  c white",
"+  c #1B1B1B",
"@  c #131313",
"#  c #0B0B0B",
"$  c #070707",
"%  c #2F371F",
"&  c #232B0F",
"*  c #171F07",
"=  c #0F1700",
"-  c #4F3B2B",
";  c #473323",
":  c #3F2B1B",
">  c #FFB7B7",
",  c #F7ABAB",
"<  c #F3A3A3",
"1  c #EB9797",
"2  c #E78F8F",
"3  c #DF8787",
"4  c #DB7B7B",
"5  c #D37373",
"6  c #CB6B6B",
"7  c #C76363",
"8  c #BF5B5B",
"9  c #BB5757",
"0  c #B34F4F",
"q  c #AF4747",
"w  c #A73F3F",
"e  c #A33B3B",
"r  c #9B3333",
"t  c #972F2F",
"y  c #8F2B2B",
"u  c #8B2323",
"i  c #831F1F",
"p  c #7F1B1B",
"a  c #771717",
"s  c #731313",
"d  c #6B0F0F",
"f  c #670B0B",
"g  c #5F0707",
"h  c #5B0707",
"j  c #530707",
"k  c #4F0000",
"l  c #470000",
"z  c #430000",
"x  c #FFEBDF",
"c  c #FFE3D3",
"v  c #FFDBC7",
"b  c #FFD3BB",
"n  c #FFCFB3",
"m  c #FFC7A7",
"M  c #FFBF9B",
"N  c #FFBB93",
"B  c #FFB383",
"V  c #F7AB7B",
"C  c #EFA373",
"Z  c #E79B6B",
"A  c #DF9363",
"S  c #D78B5B",
"D  c #CF8353",
"F  c #CB7F4F",
"G  c #BF7B4B",
"H  c #B37347",
"J  c #AB6F43",
"K  c #A36B3F",
"L  c #9B633B",
"P  c #8F5F37",
"I  c #875733",
"U  c #7F532F",
"Y  c #774F2B",
"T  c #6B4727",
"R  c #5F4323",
"E  c #533F1F",
"W  c #4B371B",
"Q  c #3F2F17",
"!  c #332B13",
"~  c #2B230F",
"^  c #EFEFEF",
"/  c #E7E7E7",
"(  c #DFDFDF",
")  c gray86",
"_  c LightGray",
"`  c #CBCBCB",
"'  c gray78",
"]  c gray75",
"[  c #B7B7B7",
"{  c gray70",
"}  c gray67",
"|  c #A7A7A7",
" . c #9F9F9F",
".. c #979797",
"X. c #939393",
"o. c #8B8B8B",
"O. c #838383",
"+. c gray50",
"@. c #777777",
"#. c #6F6F6F",
"$. c gray42",
"%. c gray39",
"&. c #5B5B5B",
"*. c gray34",
"=. c gray31",
"-. c gray28",
";. c #434343",
":. c gray23",
">. c #373737",
",. c #2F2F2F",
"<. c #272727",
"1. c #232323",
"2. c #77FF6F",
"3. c #6FEF67",
"4. c #67DF5F",
"5. c #5FCF57",
"6. c #5BBF4F",
"7. c #53AF47",
"8. c #4B9F3F",
"9. c #439337",
"0. c #3F832F",
"q. c #37732B",
"w. c #2F6323",
"e. c #27531B",
"r. c #1F4317",
"t. c #17330F",
"y. c #13230B",
"u. c #0B1707",
"i. c #BFA78F",
"p. c #B79F87",
"a. c #AF977F",
"s. c #A78F77",
"d. c #9F876F",
"f. c #9B7F6B",
"g. c #937B63",
"h. c #8B735B",
"j. c #836B57",
"k. c #7B634F",
"l. c #775F4B",
"z. c #6F5743",
"x. c #67533F",
"c. c #5F4B37",
"v. c #574333",
"b. c #533F2F",
"n. c #9F8363",
"m. c #8F7753",
"M. c #836B4B",
"N. c #775F3F",
"B. c #675333",
"V. c #5B472B",
"C. c #4F3B23",
"Z. c #43331B",
"A. c #7B7F63",
"S. c #6F7357",
"D. c #676B4F",
"F. c #5B6347",
"G. c #53573B",
"H. c #474F33",
"J. c #3F472B",
"K. c #373F27",
"L. c #FFFF73",
"P. c #EBDB57",
"I. c #D7BB43",
"U. c #C39B2F",
"Y. c #AF7B1F",
"T. c #9B5B13",
"R. c #874307",
"E. c #732B00",
"W. c white",
"Q. c #FFDBDB",
"!. c #FFBBBB",
"~. c #FF9B9B",
"^. c #FF7B7B",
"/. c #FF5F5F",
"(. c #FF3F3F",
"). c #FF1F1F",
"_. c red",
"`. c #EF0000",
"'. c #E30000",
"]. c #D70000",
"[. c #CB0000",
"{. c #BF0000",
"}. c #B30000",
"|. c #A70000",
" X c #9B0000",
".X c #8B0000",
"XX c #7F0000",
"oX c #730000",
"OX c #670000",
"+X c #5B0000",
"@X c #4F0000",
"#X c #430000",
"$X c #E7E7FF",
"%X c #C7C7FF",
"&X c #ABABFF",
"*X c #8F8FFF",
"=X c #7373FF",
"-X c #5353FF",
";X c #3737FF",
":X c #1B1BFF",
">X c blue",
",X c #0000E3",
"<X c #0000CB",
"1X c #0000B3",
"2X c #00009B",
"3X c #000083",
"4X c #00006B",
"5X c #000053",
"6X c white",
"7X c #FFEBDB",
"8X c #FFD7BB",
"9X c #FFC79B",
"0X c #FFB37B",
"qX c #FFA35B",
"wX c #FF8F3B",
"eX c #FF7F1B",
"rX c #F37317",
"tX c #EB6F0F",
"yX c #DF670F",
"uX c #D75F0B",
"iX c #CB5707",
"pX c #C34F00",
"aX c #B74700",
"sX c #AF4300",
"dX c white",
"fX c #FFFFD7",
"gX c #FFFFB3",
"hX c #FFFF8F",
"jX c #FFFF6B",
"kX c #FFFF47",
"lX c #FFFF23",
"zX c yellow",
"xX c #A73F00",
"cX c #9F3700",
"vX c #932F00",
"bX c #872300",
"nX c #4F3B27",
"mX c #432F1B",
"MX c #372313",
"NX c #2F1B0B",
"BX c #000053",
"VX c #000047",
"CX c #00003B",
"ZX c #00002F",
"AX c #000023",
"SX c #000017",
"DX c #00000B",
"FX c cyan",
"GX c #FF9F43",
"HX c #FFE74B",
"JX c #FF7BFF",
"KX c magenta",
"LX c #CF00CF",
"PX c #9F009B",
"IX c #6F006B",
"UX c #A76B6B",
/* pixels */
";.*.n b n m m m m N S I ;.*.M m N N N B B B B B B B B B C G I ;.*.B N N M M M M M M N N N N C F L *.n n m m m m m m m N D P ,.;.",
";.*.n b n m m m m N S I ;.*.M m N N N B B B B B B B B B C G I ;.*.B N N M M M M M M N N N N C F L &.n n m m m m m m m N D P ,.;.",
";.*.M m M N N N N C F I ;.*.M M N B B C C C C C C C C C A G U ;.*.B N N N N B B B B B N N B A G L &.M m M M N N N N M B D P ,.;.",
";.*.N m B B B B B A G I ;.*.M M B C C A A A qXqXqXqXqXqXA G I ;.*.C B B B B B B B B B B B B A G L &.N N B B N B B B N C G P ,.;.",
";.*.N N B C C C C A H Y ;.*.M m B C C qXA A A qXqXqXqXqXA G I ;.*.A B C C C C C C C C C C C A G L &.B B B B B B B B B C H U ,.;.",
";.*.B B C qXqXqXqXS K Y ;.*.M M B qXqXqXqXqXA A A A qXqXA G I ;.*.S C qXqXqXqXqXqXqXqXqXqXA S H P &.B B C C C C C C C A K Y ,.;.",
";.*.C B A A A A A D K Y ;.*.M m B qXqXqXqXqXqXA A A A qXA G I ;.*.S C A A A A A A A A A A A D H P &.B C qXqXqXqXqXqXqXA K Y ,.;.",
";.*.C C A A S A S F L Y ;.*.M m B qXqXqXqXC C qXA A A A A H U ;.*.S qXA A A A A A A A A A S F H P &.B C A A A A A A A S L Y ,.;.",
";.*.C C A S S S D G L T ;.*.N M B qXqXqXqXC C C qXA A A S H I ;.*.S A S S S S S S S S S S D G K I *.C A A A A A A A A D L T ,.;.",
";.*.C C S D D D D H P T ;.*.N M B qXqXqXqXC C qXA A A A S H I ;.*.D A S D D D D D D D D D F H L I *.C A S S S S S S S F L T ,.;.",
";.*.C C S F F F F H P T ;.*.B N C qXqXqXC C C qXA A A A S H P ;.*.D S D F F F F F F F F F G K L I *.qXS D D D D D D D G L T ,.;.",
";.*.B C D G G G G K P R ;.&.B B B C qXC C C qXA A A A A S G L ;.*.G D F G G G G G G G G G H K L U *.A S F F F F F F F H P T ,.;.",
";.*.C C F H H H H L U R ;.&.C B B C C C A qXqXA A A A S D G L ;.*.H D G H H H H H H H H H H L I U *.S S G G G G G G G H P T ,.;.",
";.*.G D K L L L L P R >.;.&.S B C C C A A A A A A A S S F H L ;.*.H G H K K K H K K K K K L I U Y *.S D H H H H H H H K U R ,.;.",
";.;.I P U U U U U T E >.;.&.S C C C C A A A A S S S D F H K P ;.*.K H L L L L L L L L L P I U Y Y *.D F K K K K K K K L Y R >.;.",
";.;.E R R R R R E E >.;.;.*.D A A A A S D D F F G G G H K L I ;.*.P P P P P P P P P P P I U Y Y ;.*.D G K K K K K K L P R ,.;.;.",
";.;.;.>.>.;.;.>.>.>.;.;.o *.K G H H K K L L L L L L L L L I ;.;.*.o Y Y T T T T T T T T T T Y ;.;.*.D G K K L L L L L Y R ,.o ;.",
"*.*.&.*.*.&.&.*.o ;.;.o *.*.o ;.;.;.;.;.;.;.;.;.;.;.;.;.;.;.;.o *.*.o o ;.;.;.;.;.;.;.;.;.;.;.;.;.*.G G K L L L L P Y R >.;.o o ",
"m m m m N B C qXA D H L I &.&.&.&.&.&.*.o o *.*.*.*.&.&.&.&.&.&.&.&.&.*.*.*.*.o ;.;.K H H K L L ;.*.G H K L L P P Y R ,.R K S v ",
"n b n n n m m m M B B B B M N N B B C S K o *.N N N N N N N B C qXA A S D F G K ;.;.K G G H L U ;.*.K L P P U U Y R ,.>.U F qXn ",
"n b n m m m m m m m m m m m m m m M B A H ;.o G S D G G G G G G G G G G G G H P ;.;.I L L P I Y ;.*.Y Y T T R R R ,.>.;.L S m n ",
"n b n n m m m m m M M M M M M M M M B A H ;.;.;.;.;.;.;.;.;.;.;.;.;.;.;.;.;.;.;.;.;.;.;.;.;.o o o o o ;.;.>.>.>.>.;.;.R K qXn n ",
"n n n m m m m m M N N N N N B B N N B A K ;.;.o &.&.&.*.o o o o *.*.*.*.*.*.*.*.*.*.*.*.*.*.*.*.*.o o o o o o o o ;.;.U F M n n ",
"M m m m m m m M N B B B B B B B B B B A K ;.o K G G G G H L ;.*.K H H H H H K L L I U o *.D B B B B B C A S S D G ;.;.L S M m m ",
"N N M M M M N B B B B B B B B B B B B A K ;.*.H G H H H K L >.*.H H K K K K L L P I U ;.*.B B C C C C C C qXA S G >.;.K qXm M M ",
"N N N N N N B B B B B B B B B B C C C A K ;.*.H K L L L L L >.*.L L P P P P P P I U Y >.*.B B qXA A A A A qXA S F >.o F N M N B ",
"N N B B B B B B B B B B B B C C C C C A K ;.*.H K L L L L L >.o o Y Y Y Y Y T T T T T >.*.B B C C C A A A A A S G >.;.S B N N N ",
"N B B C C C C C C C C C C C A A A A A A K ;.*.H K L P P P L >.o o o o o *.o ;.>.>.>.>.>.*.B B C C C C qXA A A S F >.o qXB B B B ",
"A A A S S S S S S D D D D D D D D S S D K ;.*.H K P P P P L >.;.A C B B B B C S D K L >.*.B B C C qXqXqXqXqXA S G >.o A C A A A ",
"K K K K K K K K K L L L L K K K K K K K I ;.*.H K P P P L L >.o M B C C C C C C A G L >.*.B C A A A A A A A A D G >.*.H G K K K ",
";.;.;.;.;.;.;.;.;.;.;.;.;.;.;.;.;.;.;.;.;.o *.K L P P P L L >.o M B qXA A A A A A G L >.;.K G H H H H H H H K K L >.o ;.>.,.,.,.",
";.*.*.*.*.*.*.*.*.*.*.*.*.&.&.&.&.&.*.*.*.*.*.K L P P P L L >.o M B C C C A A A A G L >.>.;.;.;.;.;.;.;.;.;.;.;.;.;.o ;.;.>.>.>.",
";.*.D C B N B B B B B B B B B B B B B B L *.*.K K L P P L L >.o M B C C C C qXA A G L >.;.*.*.*.*.*.*.*.*.*.*.*.*.*.*.*.o ;.;.;.",
";.D B N m n b v c c c c c c c c c v b M G o *.L K L L P P L >.o M B C C qXqXqXqXA G L >.*.A M B B B B B C C C A S S S S H L I ;.",
";.C N m n b v c c c c c v b b b b n m N D ;.*.P L L L P P L >.o m N B C qXqXqXqXA G L >.*.M M M N B B B C C A A A A A A F K Y ;.",
";.B m n b v v b b b b b n n m m m m M B D ;.*.Y Y Y U Y Y T >.o m N B C qXqXqXqXA G L >.*.B N B B C A A A S S S S S S D G K U ;.",
";.N m n b b b b n m m m m m m M M N N C D ;.*.;.;.;.;.;.;.;.;.o m N B C qXqXqXqXA G L >.*.C B C A S S S D D D D D D D D G K I ;.",
";.N m m n n m m m m M M M M N N N N B C G ;.*.*.*.*.*.*.*.o ;.o m N B C qXqXqXqXA G L >.*.C C A S D D D D D D D D D D D F H P ;.",
";.N m n m m m M M N N B B B B B N M B A G ;.*.H H G G G H H ;.o M B C C qXqXqXC A G L >.*.C C S D D D D D D D S D D D D F H L ;.",
";.B n n m m N B B B B B B B B N M M N A G ;.*.G F G G F F L ;.o M B C C C qXC C A G L >.*.C C A D D S S S S S S S S S S D G L ;.",
";.B n n m M N B B B B B B B N N M M B A G ;.*.G F H H G F L ;.o M B C C C C C C A F L >.*.S C A S S S S S S S S S A S S S G K ;.",
";.B n m M N B B B B B N B B N N N N B A G ;.o G F G G F F L ;.o m N B C C C C C C F K >.*.S qXA S S S S S A A A A A A A S G K ;.",
";.B m N B B B B B B B B B B B B B B B A H ;.o H G H H G H L ;.o M B C C C C C C B D K >.o S C A A S S S A A A A A A A A S F K ;.",
";.C B B C C C C C C C C C C C B B C A S K ;.;.P L L L L P U ;.o B B C C C C C C C F K >.o D A A A S S S S S S S S S A A S G K ;.",
";.G A A A A A A A A A A A A A A C A S D K ;.;.;.;.;.;.;.;.;.o o D A A A A A A A A G L >.;.H D D F F F F F F F F D F F F G H K ;.",
">.;.K H H H H H H H H H H H H H H H K K P ;.*.&.%.%.%.%.&.&.&.&.L H H H G G G G H K P ;.;.I L K L L L L L L L L L L L L L L P ;.",
"o o ;.;.;.;.;.;.;.;.;.;.;.;.;.;.;.;.;.;.;.;.*.&.qXm m m qXL &.&.;.;.;.;.;.;.;.;.;.;.;.;.;.;.;.;.;.>.>.>.>.;.;.;.>.>.>.;.;.;.;.;.",
"o &.&.&.&.*.&.*.*.*.*.*.*.*.&.&.&.&.&.&.*.o *.&.B n m m N H *.&.*.*.*.*.*.*.*.*.*.*.*.*.*.*.*.*.*.*.o o o *.*.*.o o o *.*.*.*.*.",
"B B B B B B B B A qXo G C B B N N N N C G K ;.*.M m N B A K o &.M N M M M M M M M M M M M M M M M M M M M M M M N N N M M M M b ",
"B B B N N N N B A A ;.C N N B B N N N C F L ;.&.N N C qXS P ;.o B N N B B B B B B B B B B B B B B B N M M N B B B B B B B B B N ",
"A A A C B B B A S D ;.C M N B C C C C A G P ;.&.N B A A D P ;.o C B A A A A A A A A A A A A A A A A A A A A A A A A A A A A A S ",
"D D S A A A A S F K ;.C N B C A A A A D K I ;.*.C C A S F P ;.o A A S D D D D D D D D D S D D D D D S S S S D D D D D D S S D S ",
"G G G F D D F G H K ;.B B A A S S S D H L U ;.o G D D F H P >.;.D S G G G G G G G G G G G G G G G G G G G G G G G G G G G G G G ",
"P P L L L L L L L L ;.B C S F G G H H L U ;.;.;.;.L K K L T >.o K H L P P P P P P P P P P P P P P P L L L P P P P P P P P P P P ",
"T T T Y Y Y Y Y U ;.;.C C F H K K L P U ;.o H G ;.>.Y P I Y ;.;.U U Y T T T T T T T T T T T T T T T T T T T T T T T T T T T T T ",
";.;.;.;.;.;.;.;.;.;.o G D K P P I Y T ;.*.G A D K ;.>.T Y ;.o *.*.*.*.*.*.*.*.o ;.;.;.>.>.>.>.>.>.>.>.>.>.>.>.>.>.>.>.>.>.>.>.;.",
";.;.&.&.*.&.&.*.*.&.%.%.&.o ;.;.;.;.;.;.*.B B A S K ;.;.;.*.A C M M B C A S D F H L P U T *.*.*.*.*.*.*.*.*.*.*.*.o o o ;.;.;.;.",
";.*.A N N N M N N B N B B N N N N M A o &.N N C A F P ;.o A B M b b b m m m M N N N N N N N N N N N N N N N N N N N B B N A L ;.",
";.&.N m m m M N N B B B B B B B A S H ;.*.N B A S F L >.;.B m m M M M N N N N N B B B B N N B B B B B B B B B B B B B B C S P >.",
";.*.N N B B B C C A A A A A A A F L Y ;.*.B B A D G L >.;.N N B C C C A A A A A A A A A A A A A A A A A A A A A A A A A D H I >.",
";.*.C B C A A A A S S S S D D F H P R ;.*.B B S G H P >.;.C C A A A A S S S S S S S S S S S S S S S S S S S S S S D D F G L U >.",
";.*.S A A S D D D D D F G G H H L U R ;.*.B C F H L I >.;.D A A S D D D D D D D D D D D D F G G G G G G G G G G G G H H K P Y >.",
";.*.G F H H K K K K K L L L P P P Y R ;.*.S S K L P Y >.;.H A S F G H H K K K K K L K K K L L L L L L L L L L L L L P P P Y R >.",
";.*.o Y T T T T T R R R R R R R R >.>.;.*.%.P T T R ;.>.;.U P L P I U Y T T T T T T T R R R R R R R R R R R R R R R R R R E W >."
};
